<svg width="264" height="264" viewBox="0 0 264 264" fill="none" xmlns="http://www.w3.org/2000/svg">
  <g filter="url(#filter0_d)">
    <circle cx="132" cy="128" r="128" fill="#F1F1F1"/>
    <rect x="61" y="129.832" width="103" height="77" rx="17" transform="rotate(-45 61 129.832)" fill="black"/>
    <rect x="63" y="129.882" width="100" height="75" rx="15" transform="rotate(-45 63 129.882)" fill="#FF0000"/>
    <rect x="100" y="121" width="102" height="77" rx="17" fill="black"/>
    <rect x="101" y="122" width="100" height="75" rx="15" fill="white"/>
    <rect x="101" y="138" width="100" height="13" fill="black"/>
    <circle cx="125.5" cy="171.5" r="12.5" fill="#DF1919"/>
    <circle cx="141.5" cy="171.5" r="12.5" fill="#D09B10"/>
    <rect x="174" y="166" width="15" height="2" fill="black"/>
    <rect x="174" y="171" width="15" height="2" fill="black"/>
    <rect x="174" y="176" width="15" height="2" fill="black"/>
    <path d="M78 118C73.321 122.5 67.2382 131 78 141" stroke="black"/>
    <path d="M78 118L97 99" stroke="black"/>
    <path d="M108 88L119 77" stroke="black"/>
  </g>
  <defs>
    <filter id="filter0_d" x="0" y="0" width="264" height="264" filterUnits="userSpaceOnUse" color-interpolation-filters="sRGB">
      <feFlood flood-opacity="0" result="BackgroundImageFix"/>
      <feColorMatrix in="SourceAlpha" type="matrix" values="0 0 0 0 0 0 0 0 0 0 0 0 0 0 0 0 0 0 127 0"/>
      <feOffset dy="4"/>
      <feGaussianBlur stdDeviation="2"/>
      <feColorMatrix type="matrix" values="0 0 0 0 0 0 0 0 0 0 0 0 0 0 0 0 0 0 0.25 0"/>
      <feBlend mode="normal" in2="BackgroundImageFix" result="effect1_dropShadow"/>
      <feBlend mode="normal" in="SourceGraphic" in2="effect1_dropShadow" result="shape"/>
    </filter>
  </defs>
</svg>
